HIERARCHY
ROOT hips
{
	OFFSET -0.003675 0.299928 -0.021708
	CHANNELS 6 Xposition Yposition Zposition Xrotation Yrotation Zrotation
	JOINT LowerBack
	{
		OFFSET 0.000919 0.177588 0.009275
		CHANNELS 3 Xrotation Yrotation Zrotation
		JOINT spine
		{
			OFFSET 0.000919 0.177588 0.009275
			CHANNELS 3 Xrotation Yrotation Zrotation
			JOINT chest
			{
				OFFSET 0.000456 0.100015 0.004638
				CHANNELS 3 Xrotation Yrotation Zrotation
				JOINT neck
				{
					OFFSET 0.000456 0.100015 0.004638
					CHANNELS 3 Xrotation Yrotation Zrotation
					JOINT head
					{
						OFFSET 0.000924 0.155147 0.009274
						CHANNELS 6 Xposition Yposition Zposition Xrotation Yrotation Zrotation
						End Site
						{
							OFFSET 0.000000 0.153400 0.000000
						}
					}
				}
				JOINT shoulder.L
				{
					OFFSET 0.019937 0.078966 0.057518
					CHANNELS 6 Xposition Yposition Zposition Yrotation Xrotation Zrotation
					JOINT upper_arm.L
					{
						OFFSET 0.177024 -0.020465 -0.095062
						CHANNELS 6 Xposition Yposition Zposition Xrotation Yrotation Zrotation
						JOINT forearm.L
						{
							OFFSET 0.247100 -0.135500 -0.061800
							CHANNELS 3 Xrotation Yrotation Zrotation
							JOINT hand.L
							{
								OFFSET 0.217000 -0.143000 0.039300
								CHANNELS 3 Xrotation Yrotation Zrotation
								JOINT palm.01.L
								{
									OFFSET 0.021770 -0.038291 0.012954
									CHANNELS 6 Xposition Yposition Zposition Yrotation Xrotation Zrotation
									JOINT f_index.01.L
									{
										OFFSET 0.053215 -0.044137 0.008236
										CHANNELS 3 Xrotation Yrotation Zrotation
										JOINT f_index.02.L
										{
											OFFSET 0.036108 -0.024723 -0.010656
											CHANNELS 3 Xrotation Yrotation Zrotation
											JOINT f_index.03.L
											{
												OFFSET 0.021342 -0.014948 -0.010846
												CHANNELS 3 Xrotation Yrotation Zrotation
												End Site
												{
													OFFSET 0.015600 -0.009860 -0.013421
												}
											}
										}
									}
									JOINT thumb.01.L
									{
										OFFSET -0.009090 -0.002348 -0.024223
										CHANNELS 6 Xposition Yposition Zposition Xrotation Yrotation Zrotation
										JOINT thumb.02.L
										{
											OFFSET 0.019713 -0.035076 -0.011120
											CHANNELS 3 Xrotation Yrotation Zrotation
											JOINT thumb.03.L
											{
												OFFSET 0.024877 -0.021748 -0.005176
												CHANNELS 3 Xrotation Yrotation Zrotation
												End Site
												{
													OFFSET 0.016125 -0.013029 -0.001569
												}
											}
										}
									}
								}
								JOINT palm.02.L
								{
									OFFSET 0.032823 -0.025104 0.012281
									CHANNELS 6 Xposition Yposition Zposition Yrotation Xrotation Zrotation
									JOINT f_middle.01.L
									{
										OFFSET 0.055723 -0.038469 0.008037
										CHANNELS 3 Xrotation Yrotation Zrotation
										JOINT f_middle.02.L
										{
											OFFSET 0.038167 -0.027473 -0.015582
											CHANNELS 3 Xrotation Yrotation Zrotation
											JOINT f_middle.03.L
											{
												OFFSET 0.021707 -0.016587 -0.017037
												CHANNELS 3 Xrotation Yrotation Zrotation
												End Site
												{
													OFFSET 0.014112 -0.010584 -0.014294
												}
											}
										}
									}
								}
								JOINT palm.03.L
								{
									OFFSET 0.039230 -0.011402 0.008390
									CHANNELS 6 Xposition Yposition Zposition Yrotation Xrotation Zrotation
									JOINT f_ring.01.L
									{
										OFFSET 0.061796 -0.031470 0.007910
										CHANNELS 3 Xrotation Yrotation Zrotation
										JOINT f_ring.02.L
										{
											OFFSET 0.033092 -0.023401 -0.019127
											CHANNELS 3 Xrotation Yrotation Zrotation
											JOINT f_ring.03.L
											{
												OFFSET 0.021392 -0.015362 -0.017824
												CHANNELS 3 Xrotation Yrotation Zrotation
												End Site
												{
													OFFSET 0.008670 -0.007297 -0.014686
												}
											}
										}
									}
								}
								JOINT palm.04.L
								{
									OFFSET 0.043417 0.002450 0.002889
									CHANNELS 6 Xposition Yposition Zposition Yrotation Xrotation Zrotation
									JOINT f_pinky.01.L
									{
										OFFSET 0.069986 -0.026156 0.003627
										CHANNELS 3 Xrotation Yrotation Zrotation
										JOINT f_pinky.02.L
										{
											OFFSET 0.018520 -0.012813 -0.016429
											CHANNELS 3 Xrotation Yrotation Zrotation
											JOINT f_pinky.03.L
											{
												OFFSET 0.013822 -0.009796 -0.014947
												CHANNELS 3 Xrotation Yrotation Zrotation
												End Site
												{
													OFFSET 0.007238 -0.006103 -0.011657
												}
											}
										}
									}
								}
							}
						}
					}
				}
				JOINT shoulder.R
				{
					OFFSET -0.016662 0.078957 0.057696
					CHANNELS 6 Xposition Yposition Zposition Yrotation Xrotation Zrotation
					JOINT upper_arm.R
					{
						OFFSET -0.176972 -0.020537 -0.095144
						CHANNELS 6 Xposition Yposition Zposition Xrotation Yrotation Zrotation
						JOINT forearm.R
						{
							OFFSET -0.247100 -0.135500 -0.061800
							CHANNELS 3 Xrotation Yrotation Zrotation
							JOINT hand.R
							{
								OFFSET -0.217000 -0.143000 0.039300
								CHANNELS 3 Xrotation Yrotation Zrotation
								JOINT palm.01.R
								{
									OFFSET -0.021773 -0.038278 0.012988
									CHANNELS 6 Xposition Yposition Zposition Yrotation Xrotation Zrotation
									JOINT f_index.01.R
									{
										OFFSET -0.053212 -0.044139 0.008249
										CHANNELS 3 Xrotation Yrotation Zrotation
										JOINT f_index.02.R
										{
											OFFSET -0.036049 -0.024835 -0.010634
											CHANNELS 3 Xrotation Yrotation Zrotation
											JOINT f_index.03.R
											{
												OFFSET -0.021371 -0.014881 -0.010866
												CHANNELS 3 Xrotation Yrotation Zrotation
												End Site
												{
													OFFSET -0.015584 -0.009883 -0.013422
												}
											}
										}
									}
									JOINT thumb.01.R
									{
										OFFSET 0.009113 -0.002381 -0.024211
										CHANNELS 6 Xposition Yposition Zposition Xrotation Yrotation Zrotation
										JOINT thumb.02.R
										{
											OFFSET -0.019694 -0.035097 -0.011088
											CHANNELS 3 Xrotation Yrotation Zrotation
											JOINT thumb.03.R
											{
												OFFSET -0.024867 -0.021762 -0.005168
												CHANNELS 3 Xrotation Yrotation Zrotation
												End Site
												{
													OFFSET -0.016120 -0.013036 -0.001565
												}
											}
										}
									}
								}
								JOINT palm.02.R
								{
									OFFSET -0.032828 -0.025095 0.012286
									CHANNELS 6 Xposition Yposition Zposition Yrotation Xrotation Zrotation
									JOINT f_middle.01.R
									{
										OFFSET -0.055721 -0.038472 0.008040
										CHANNELS 3 Xrotation Yrotation Zrotation
										JOINT f_middle.02.R
										{
											OFFSET -0.038101 -0.027593 -0.015557
											CHANNELS 3 Xrotation Yrotation Zrotation
											JOINT f_middle.03.R
											{
												OFFSET -0.021730 -0.016530 -0.017054
												CHANNELS 3 Xrotation Yrotation Zrotation
												End Site
												{
													OFFSET -0.014096 -0.010608 -0.014293
												}
											}
										}
									}
								}
								JOINT palm.03.R
								{
									OFFSET -0.039192 -0.011488 0.008390
									CHANNELS 6 Xposition Yposition Zposition Yrotation Xrotation Zrotation
									JOINT f_ring.01.R
									{
										OFFSET -0.061839 -0.031387 0.007876
										CHANNELS 3 Xrotation Yrotation Zrotation
										JOINT f_ring.02.R
										{
											OFFSET -0.033068 -0.023437 -0.019125
											CHANNELS 3 Xrotation Yrotation Zrotation
											JOINT f_ring.03.R
											{
												OFFSET -0.021371 -0.015393 -0.017822
												CHANNELS 3 Xrotation Yrotation Zrotation
												End Site
												{
													OFFSET -0.008654 -0.007321 -0.014684
												}
											}
										}
									}
								}
								JOINT palm.04.R
								{
									OFFSET -0.043421 0.002443 0.002845
									CHANNELS 6 Xposition Yposition Zposition Yrotation Xrotation Zrotation
									JOINT f_pinky.01.R
									{
										OFFSET -0.069983 -0.026169 0.003599
										CHANNELS 3 Xrotation Yrotation Zrotation
										JOINT f_pinky.02.R
										{
											OFFSET -0.018501 -0.012842 -0.016428
											CHANNELS 3 Xrotation Yrotation Zrotation
											JOINT f_pinky.03.R
											{
												OFFSET -0.013806 -0.009821 -0.014946
												CHANNELS 3 Xrotation Yrotation Zrotation
												End Site
												{
													OFFSET -0.007226 -0.006121 -0.011655
												}
											}
										}
									}
								}
							}
						}
					}
				}
			}
		}
	}
	JOINT pelvis.L
	{
		OFFSET 0.000000 0.000000 0.000000
		CHANNELS 6 Xposition Yposition Zposition Xrotation Yrotation Zrotation
		JOINT thigh.L
		{
			OFFSET 0.101675 0.001054 -0.000000
			CHANNELS 3 Xrotation Yrotation Zrotation
			JOINT shin.L
			{
				OFFSET 0.000000 -0.534800 0.041000
				CHANNELS 3 Xrotation Yrotation Zrotation
				JOINT foot.L
				{
					OFFSET 0.000000 -0.452000 -0.044800
					CHANNELS 3 Xrotation Yrotation Zrotation
					JOINT toe.L
					{
						OFFSET -0.000000 -0.068500 0.109600
						CHANNELS 3 Xrotation Yrotation Zrotation
						End Site
						{
							OFFSET -0.000000 0.000000 0.067200
						}
					}
				}
				JOINT heel.L
				{
					OFFSET 0.000000 -0.452000 -0.044800
					CHANNELS 3 Xrotation Yrotation Zrotation
					JOINT heel.02.L
					{
						OFFSET -0.038000 -0.085200 0.016200
						CHANNELS 6 Xposition Yposition Zposition Xrotation Yrotation Zrotation
						End Site
						{
							OFFSET 0.080000 -0.000000 0.000000
						}
					}
				}
			}
		}
	}
	JOINT pelvis.R
	{
		OFFSET 0.000000 0.000000 0.000000
		CHANNELS 6 Xposition Yposition Zposition Xrotation Yrotation Zrotation
		JOINT thigh.R
		{
			OFFSET -0.094325 0.001054 0.000000
			CHANNELS 3 Xrotation Yrotation Zrotation
			JOINT shin.R
			{
				OFFSET 0.000000 -0.534800 0.041000
				CHANNELS 3 Xrotation Yrotation Zrotation
				JOINT foot.R
				{
					OFFSET 0.000000 -0.452000 -0.044800
					CHANNELS 3 Xrotation Yrotation Zrotation
					JOINT toe.R
					{
						OFFSET -0.000000 -0.068500 0.109600
						CHANNELS 3 Xrotation Yrotation Zrotation
						End Site
						{
							OFFSET -0.000000 0.000000 0.067200
						}
					}
				}
				JOINT heel.R
				{
					OFFSET 0.000000 -0.452000 -0.044800
					CHANNELS 3 Xrotation Yrotation Zrotation
					JOINT heel.02.R
					{
						OFFSET 0.038000 -0.085200 0.016200
						CHANNELS 6 Xposition Yposition Zposition Xrotation Yrotation Zrotation
						End Site
						{
							OFFSET -0.080000 0.000000 -0.000000
						}
					}
				}
			}
		}
	}
}
MOTION
Frames: 4
Frame Time: 0.041667
-0.005178 0.215897 0.003866 34.119261 2.218857 91.742083 -0.000000 -0.000003 -0.000000 -0.000000 0.000003 0.000000 0.000000 -0.000001 -0.000000 -0.000000 0.000001 0.000000 0.000924 0.155148 0.009274 -7.830021 0.026288 -3.008864 0.019937 0.078966 0.057518 -21.372061 9.539380 54.366127 0.177025 -0.020465 -0.095062 -56.582438 32.733289 -70.141453 -54.637446 -10.131951 -49.659905 -0.000003 0.000003 0.000001 0.021770 -0.038291 0.012954 0.000002 -0.000003 -0.000000 -0.000001 -0.000001 -0.000000 -0.000000 -0.000002 0.000010 0.000000 0.000002 0.000002 -0.009090 -0.002348 -0.024224 -0.000000 -0.000002 0.000001 -0.000000 -0.000001 0.000003 -0.000000 -0.000001 -0.000001 0.032823 -0.025104 0.012281 0.000001 -0.000000 0.000009 -0.000001 0.000002 -0.000005 -0.000002 -0.000003 0.000007 -0.000001 -0.000003 -0.000001 0.039230 -0.011402 0.008390 0.000002 -0.000002 0.000006 0.000002 0.000002 -0.000000 0.000001 0.000003 0.000001 -0.000004 -0.000004 0.000008 0.043417 0.002450 0.002889 0.000001 -0.000000 -0.000002 -0.000001 -0.000003 0.000003 0.000001 -0.000004 -0.000001 0.000002 -0.000000 0.000001 -0.016662 0.078957 0.057696 -20.838677 9.140048 -35.961363 -0.176972 -0.020537 -0.095144 -24.753055 -13.773452 61.780666 -62.856838 7.593666 52.334774 0.000001 0.000002 0.000002 -0.021773 -0.038278 0.012988 0.000002 -0.000002 0.000002 0.000000 0.000005 -0.000004 -0.000001 0.000001 -0.000001 0.000001 -0.000002 0.000005 0.009113 -0.002381 -0.024211 0.000002 0.000001 -0.000001 0.000001 0.000002 0.000000 0.000000 0.000001 -0.000006 -0.032828 -0.025095 0.012286 0.000002 -0.000001 0.000004 0.000003 0.000009 0.000001 0.000001 0.000001 -0.000002 -0.000004 0.000001 -0.000004 -0.039192 -0.011488 0.008390 0.000003 0.000001 0.000007 -0.000003 0.000001 0.000000 0.000003 -0.000001 0.000003 0.000000 0.000004 -0.000003 -0.043421 0.002443 0.002845 0.000001 -0.000000 0.000005 -0.000003 0.000009 -0.000003 -0.000000 -0.000005 0.000002 0.000002 0.000001 -0.000004 0.000000 0.000000 0.000000 -1.519611 1.001761 -13.498066 25.104306 -1.209299 -17.129080 9.665145 0.368733 -3.720855 0.000000 -0.000000 0.000001 -0.000000 -0.000002 -0.000000 -0.000002 -0.000001 -0.000000 -0.038000 -0.085200 0.016200 -0.000001 -0.000003 0.000001 0.000000 0.000000 0.000000 -1.455383 0.987050 -12.265007 18.095461 0.305429 4.894211 21.421182 1.098345 -11.152587 0.000000 0.000001 -0.000003 0.000003 0.000003 -0.000001 0.000002 0.000001 -0.000001 0.038000 -0.085200 0.016200 0.000004 0.000000 0.000000 
-0.007819 0.212595 0.000237 56.940446 2.318214 89.248518 -0.000000 0.000004 -0.000000 -0.000001 0.000003 0.000000 0.000000 0.000002 -0.000000 0.000000 0.000002 -0.000000 0.000924 0.155147 0.009274 -2.365402 0.011481 2.973572 0.019937 0.078966 0.057518 -8.432603 7.769861 49.549570 0.177024 -0.020465 -0.095062 -59.103375 21.494491 -59.230697 -60.393919 -22.240954 -41.076556 -0.000002 -0.000002 0.000002 0.021770 -0.038291 0.012954 -0.000000 -0.000001 -0.000000 -0.000001 -0.000001 0.000003 0.000002 0.000003 0.000003 -0.000002 -0.000003 0.000005 -0.009090 -0.002348 -0.024224 -0.000002 -0.000003 0.000002 -0.000000 0.000000 -0.000000 0.000001 0.000000 -0.000002 0.032823 -0.025104 0.012281 -0.000001 -0.000001 0.000005 0.000001 0.000002 -0.000005 -0.000002 -0.000003 0.000007 0.000001 -0.000003 0.000001 0.039230 -0.011402 0.008390 -0.000000 -0.000002 0.000006 0.000001 0.000000 0.000001 -0.000000 0.000005 0.000006 -0.000001 -0.000003 0.000002 0.043417 0.002450 0.002889 -0.000001 -0.000000 -0.000002 -0.000004 -0.000005 -0.000000 0.000002 0.000001 0.000001 0.000000 -0.000008 -0.000002 -0.016662 0.078957 0.057696 -7.032187 6.826932 -38.509740 -0.176972 -0.020537 -0.095144 -36.621193 -15.543697 59.954110 -56.718304 5.959396 54.347870 -0.000000 -0.000001 -0.000003 -0.021773 -0.038278 0.012988 -0.000001 -0.000002 0.000002 0.000000 0.000005 -0.000004 0.000000 -0.000002 -0.000001 -0.000004 -0.000003 -0.000002 0.009114 -0.002381 -0.024212 0.000002 -0.000002 -0.000003 -0.000000 -0.000002 0.000002 0.000001 0.000001 -0.000008 -0.032828 -0.025095 0.012286 0.000001 0.000000 -0.000001 -0.000000 0.000004 -0.000004 0.000002 -0.000001 -0.000001 0.000002 0.000003 -0.000004 -0.039192 -0.011488 0.008390 0.000001 -0.000000 0.000001 0.000003 0.000000 -0.000005 0.000004 0.000004 -0.000003 -0.000005 0.000004 -0.000002 -0.043421 0.002443 0.002844 0.000000 -0.000001 0.000000 -0.000005 0.000003 -0.000002 0.000001 0.000002 -0.000000 -0.000001 0.000003 -0.000000 0.000000 0.000000 -0.000000 -1.589137 1.268390 -16.432991 16.271377 -1.260070 -17.349305 7.920453 0.922784 -9.350380 0.000000 -0.000003 0.000001 0.000001 -0.000003 0.000002 0.000003 -0.000002 0.000002 -0.038000 -0.085200 0.016200 -0.000002 0.000000 -0.000001 -0.000000 0.000000 -0.000000 -1.513805 1.247016 -15.200466 12.317311 0.377298 5.453598 16.739388 1.827846 -18.782008 0.000000 -0.000002 0.000002 0.000001 0.000000 0.000002 0.000007 0.000002 0.000000 0.038000 -0.085200 0.016200 -0.000001 0.000001 0.000004 
-0.007192 0.213410 0.001552 54.494757 13.821483 87.823590 -0.000000 0.000002 -0.000001 -0.000001 -0.000000 -0.000000 0.000000 -0.000002 0.000001 -0.000001 -0.000003 0.000001 0.000924 0.155148 0.009274 -6.278338 0.023480 -1.240046 0.019937 0.078966 0.057518 -18.327764 6.025566 44.053583 0.177025 -0.020465 -0.095062 -41.297506 29.271223 -79.190873 -35.830421 -16.232814 -36.531062 -0.000001 0.000001 -0.000003 0.021770 -0.038291 0.012954 0.000001 -0.000000 -0.000000 -0.000001 0.000000 -0.000002 -0.000000 0.000001 0.000005 0.000003 0.000002 0.000005 -0.009090 -0.002348 -0.024224 -0.000003 -0.000002 0.000001 0.000000 -0.000002 -0.000004 0.000000 0.000000 0.000004 0.032823 -0.025104 0.012281 0.000003 -0.000003 0.000005 -0.000000 -0.000002 -0.000005 -0.000004 -0.000000 0.000005 -0.000000 -0.000006 0.000000 0.039230 -0.011402 0.008390 0.000002 -0.000004 0.000006 0.000002 0.000000 -0.000000 -0.000002 0.000002 0.000003 0.000001 -0.000002 0.000003 0.043417 0.002450 0.002889 0.000001 -0.000003 -0.000002 -0.000006 -0.000004 0.000003 -0.000001 0.000004 -0.000000 -0.000001 -0.000002 -0.000002 -0.016662 0.078957 0.057696 -11.706113 5.967262 -34.207572 -0.176972 -0.020537 -0.095144 -32.398719 -12.936724 57.344889 -50.251898 5.931315 55.762453 0.000001 0.000002 0.000002 -0.021773 -0.038278 0.012988 -0.000000 -0.000000 0.000000 -0.000004 -0.000000 -0.000003 -0.000001 -0.000000 0.000001 -0.000005 0.000001 -0.000004 0.009114 -0.002381 -0.024212 0.000001 -0.000004 -0.000005 -0.000000 -0.000004 0.000000 0.000001 -0.000000 -0.000003 -0.032828 -0.025095 0.012286 0.000003 0.000001 -0.000001 -0.000001 0.000004 0.000003 -0.000000 0.000003 0.000001 0.000000 -0.000003 -0.000002 -0.039192 -0.011488 0.008390 0.000002 0.000001 0.000005 0.000002 0.000002 -0.000003 0.000002 -0.000003 -0.000002 -0.000001 0.000000 -0.000003 -0.043421 0.002443 0.002844 0.000000 0.000000 0.000000 -0.000001 0.000002 -0.000002 -0.000001 -0.000003 0.000000 -0.000001 0.000001 -0.000001 -0.000000 0.000000 -0.000000 -1.715028 1.305976 -16.451375 11.257853 -1.386583 -18.801813 9.814620 1.224923 -12.456377 0.000002 -0.000004 -0.000003 -0.000001 -0.000001 -0.000000 0.000000 -0.000004 -0.000002 -0.038000 -0.085200 0.016200 -0.000002 0.000002 -0.000001 -0.000000 0.000000 -0.000000 -1.634442 1.283088 -15.219014 4.809920 0.493826 6.453806 20.291162 1.551138 -15.854816 0.000000 -0.000001 -0.000003 0.000002 0.000002 -0.000002 0.000007 -0.000001 -0.000001 0.038000 -0.085200 0.016200 0.000003 -0.000002 -0.000001 
-0.007534 0.215575 -0.001069 54.819016 21.210037 87.610536 -0.000000 0.000001 -0.000000 0.000000 0.000005 -0.000002 0.000001 -0.000001 -0.000001 0.000002 -0.000001 0.000001 0.000924 0.155148 0.009274 0.129008 0.005619 -2.854956 0.019937 0.078966 0.057518 -24.482297 7.403193 46.492421 0.177025 -0.020465 -0.095062 -40.167359 35.125996 -87.558934 -22.032630 -16.537131 -20.716821 -0.000004 -0.000004 0.000002 0.021770 -0.038291 0.012954 -0.000002 -0.000001 0.000001 -0.000003 -0.000001 0.000007 0.000002 -0.000004 0.000006 -0.000002 0.000003 0.000000 -0.009090 -0.002348 -0.024224 -0.000000 -0.000003 0.000002 0.000002 0.000005 -0.000000 -0.000002 -0.000002 -0.000006 0.032823 -0.025104 0.012281 -0.000000 0.000001 0.000004 -0.000004 0.000003 -0.000007 -0.000003 0.000007 0.000001 -0.000003 -0.000005 -0.000001 0.039230 -0.011402 0.008390 0.000001 -0.000000 0.000004 0.000001 -0.000001 -0.000000 -0.000000 0.000006 0.000001 0.000005 0.000004 0.000003 0.043417 0.002450 0.002889 -0.000001 -0.000001 -0.000003 0.000006 -0.000006 -0.000000 0.000002 -0.000001 -0.000006 -0.000002 0.000001 -0.000001 -0.016662 0.078957 0.057696 -23.051970 9.523883 -38.519699 -0.176972 -0.020537 -0.095144 -36.678143 -13.667767 59.731801 -36.596908 10.788839 46.486018 0.000002 0.000004 0.000003 -0.021773 -0.038278 0.012988 0.000001 -0.000003 -0.000003 -0.000000 0.000003 -0.000001 -0.000001 0.000001 -0.000002 0.000001 0.000002 0.000003 0.009114 -0.002381 -0.024211 0.000003 -0.000001 0.000001 -0.000000 0.000003 0.000002 0.000002 -0.000001 -0.000004 -0.032828 -0.025095 0.012286 0.000001 -0.000002 -0.000001 0.000005 0.000000 0.000004 -0.000001 0.000001 0.000001 -0.000000 0.000003 -0.000004 -0.039192 -0.011488 0.008390 0.000001 -0.000003 -0.000002 0.000001 0.000003 -0.000002 0.000002 -0.000003 -0.000002 -0.000000 0.000003 -0.000001 -0.043421 0.002443 0.002845 -0.000002 -0.000001 0.000000 -0.000003 -0.000003 0.000003 -0.000002 -0.000003 0.000002 -0.000000 0.000001 0.000002 -0.000000 0.000000 0.000000 -1.647073 0.893760 -11.878633 -1.318113 -1.455314 -18.984439 -0.572410 0.789477 -7.989535 -0.000002 0.000002 0.000003 -0.000001 -0.000002 -0.000001 0.000003 0.000001 0.000003 -0.038000 -0.085200 0.016200 -0.000004 0.000001 -0.000002 -0.000000 0.000000 0.000000 -1.582770 0.880925 -10.645444 -5.215419 0.689223 8.311602 20.340488 1.731542 -17.757720 0.000000 0.000003 -0.000002 0.000001 -0.000002 -0.000002 0.000005 0.000005 0.000000 0.038000 -0.085200 0.016200 -0.000006 0.000005 -0.000002 
